<svg xmlns="http://www.w3.org/2000/svg" width="24.739" height="24.077" viewBox="0 0 24.739 24.077">
  <g id="shopping-cart" transform="translate(8 4.273)">
    <g id="Group_927" data-name="Group 927" transform="translate(-8 -4.273)">
      <g id="Group_926" data-name="Group 926" transform="translate(0 0)">
        <path id="Path_1327" data-name="Path 1327" d="M99.236,350.322a2.583,2.583,0,1,0,2.583,2.583A2.583,2.583,0,0,0,99.236,350.322Zm0,4.018a1.435,1.435,0,1,1,1.435-1.435A1.435,1.435,0,0,1,99.236,354.34Z" transform="translate(-91.344 -331.411)" fill="#fff"/>
        <path id="Path_1328" data-name="Path 1328" d="M297.767,350.322a2.583,2.583,0,1,0,2.583,2.583A2.583,2.583,0,0,0,297.767,350.322Zm0,4.018A1.435,1.435,0,1,1,299.2,352.9,1.435,1.435,0,0,1,297.767,354.34Z" transform="translate(-278.97 -331.411)" fill="#fff"/>
        <path id="Path_1329" data-name="Path 1329" d="M24.622,9.873a.718.718,0,0,0-.459-.23L5.481,9.386,4.965,7.807A2.64,2.64,0,0,0,2.5,6.028H.574a.574.574,0,0,0,0,1.148H2.5a1.492,1.492,0,0,1,1.377,1L7.519,19.171l-.287.66a2.755,2.755,0,0,0,.258,2.5,2.669,2.669,0,0,0,2.152,1.205H20.805a.574.574,0,0,0,0-1.148H9.642A1.464,1.464,0,0,1,8.437,21.7a1.578,1.578,0,0,1-.143-1.377l.23-.517L20.6,18.54a3.157,3.157,0,0,0,2.726-2.411l1.377-5.768A.488.488,0,0,0,24.622,9.873Zm-2.41,6a1.951,1.951,0,0,1-1.75,1.521L8.523,18.626,5.854,10.533l17.591.258Z" transform="translate(0 -6.028)" fill="#fff"/>
      </g>
    </g>
  </g>
</svg>
